<svg width="121" height="45" viewBox="0 0 121 45" fill="none" xmlns="http://www.w3.org/2000/svg">
<path fill-rule="evenodd" clip-rule="evenodd" d="M93.3443 11.0576V20.5312H89.9618V5.86366H93.3443V7.71217H93.5176C94.1784 6.50997 95.3528 5.57232 97.4726 5.57232C100.453 5.57232 102 7.45096 102 10.4715V20.5312H98.6175V10.4983C98.6175 8.77037 97.9273 7.6251 96.1804 7.6251C94.4336 7.6251 93.3443 8.88758 93.3443 11.0576ZM77.5277 13.1974C77.5277 17.0719 78.761 19.2118 80.9658 19.2118C83.1706 19.2118 84.4039 17.0987 84.4039 13.1974C84.4039 9.29613 83.1706 7.18307 80.9658 7.18307C78.761 7.18307 77.5277 9.32292 77.5277 13.1974ZM87.9565 13.2008C87.9565 17.3934 85.4638 20.8259 80.9658 20.8259C76.4678 20.8259 73.9751 17.3934 73.9751 13.2008C73.9751 9.00813 76.4678 5.57567 80.9658 5.57567C85.4638 5.57567 87.9565 9.00813 87.9565 13.2008ZM72.5718 16.0439C72.5718 18.9774 70.4782 20.8259 66.6115 20.8259V20.8225C63.144 20.8225 60.8541 19.2687 60.6808 16.7471L63.7165 15.8664C64.0305 18.3009 65.0315 19.2687 66.9812 19.2687C68.7869 19.2687 69.8174 18.4181 69.8174 16.9212C69.8174 15.6889 69.1304 15.133 67.6126 14.7512L64.7469 14.0179C62.9118 13.549 61.2794 12.2296 61.2794 9.79509C61.2794 6.92186 63.5693 5.57232 66.7522 5.57232C69.9352 5.57232 71.911 7.00893 72.2545 9.06171L69.3888 9.94243C69.2482 8.09393 68.1883 7.12614 66.4676 7.12614C65.0087 7.12614 64.0338 7.83272 64.0338 9.00478C64.0338 9.94243 64.6357 10.5887 66.0097 10.9404L68.7608 11.6436C70.7104 12.1426 72.5718 13.2878 72.5718 16.0439ZM50.4221 11.0542V20.5278V20.5312H47.0396V5.86366H50.4221V7.71217H50.5955C51.2563 6.50997 52.4307 5.57232 54.5504 5.57232C57.5305 5.57232 59.0779 7.45096 59.0779 10.4715V20.5278H55.6954V10.495C55.6954 8.76702 55.0052 7.62175 53.2583 7.62175C51.5115 7.62175 50.4221 8.88423 50.4221 11.0542ZM35.6688 11.0542V20.5278L35.6655 20.5312H32.283V0H35.6655V7.71217H35.8389C36.4997 6.50997 37.674 5.57232 39.7938 5.57232C42.7739 5.57232 44.3213 7.45096 44.3213 10.4715V20.5278H40.9387V10.495C40.9387 8.76702 40.2518 7.62175 38.5049 7.62175C36.7581 7.62175 35.6688 8.88423 35.6688 11.0542ZM19.8522 13.1941C19.8522 17.0686 21.0822 19.2084 23.2903 19.2084C25.4952 19.2084 26.7284 17.0954 26.7284 13.1941C26.7284 9.29278 25.4952 7.17972 23.2903 7.17972C21.0855 7.17972 19.8522 9.31957 19.8522 13.1941ZM30.281 13.1974C30.281 17.3901 27.7883 20.8225 23.2903 20.8225C18.7924 20.8225 16.2997 17.3901 16.2997 13.1974C16.2997 9.00478 18.7924 5.57232 23.2903 5.57232C27.7883 5.57232 30.281 9.00478 30.281 13.1974ZM14.2944 14.2255C14.2944 18.0665 12.433 21 7.64719 21C2.86135 21 1 18.0665 1 14.2255V12.963L4.55258 12.0555V14.8718C4.55258 17.5407 5.46854 19.0946 7.64719 19.0946C9.82585 19.0946 10.7418 17.6278 10.7418 15.1631V0H14.2944V14.2255ZM112.334 44.5284V44.5317L112.337 44.5284H112.334ZM112.334 44.5284V35.2664C112.334 33.1441 113.425 31.9094 115.174 31.9094C116.922 31.9094 117.614 33.0295 117.614 34.7194V44.5317H121V34.6932C121 31.7391 119.451 29.9017 116.467 29.9017C114.345 29.9017 113.169 30.8188 112.508 31.9945H112.337V30.1867H108.951V44.5284H112.334ZM96.4987 37.3592C96.4987 41.1485 97.7334 43.2413 99.9409 43.2413C102.148 43.2413 103.383 41.1747 103.383 37.3592C103.383 33.5437 102.148 31.4771 99.9409 31.4771C97.7334 31.4771 96.4987 33.5699 96.4987 37.3592ZM106.94 37.3624C106.94 41.4629 104.444 44.8199 99.9409 44.8199C95.4376 44.8199 92.9419 41.4629 92.9419 37.3624C92.9419 33.262 95.4376 29.905 99.9409 29.905C104.444 29.905 106.94 33.262 106.94 37.3624ZM91.5369 40.143C91.5369 43.012 89.4408 44.8199 85.5696 44.8199L85.5728 44.8166C82.1012 44.8166 79.8086 43.2969 79.635 40.8308L82.6743 39.9694C82.9887 42.3504 83.9909 43.2969 85.9429 43.2969C87.7508 43.2969 88.7825 42.4651 88.7825 41.0011C88.7825 39.7958 88.0947 39.2522 86.575 38.8788L83.706 38.1616C81.8687 37.7031 80.2344 36.4127 80.2344 34.0317C80.2344 31.2216 82.527 29.9017 85.7137 29.9017C88.9004 29.9017 90.8785 31.3068 91.2224 33.3144L88.3534 34.1758C88.2126 32.3679 87.1515 31.4214 85.4287 31.4214C83.9647 31.4214 82.9888 32.1124 82.9888 33.2587C82.9888 34.1758 83.5914 34.8079 84.9669 35.1517L87.7213 35.8395C89.6733 36.3275 91.5369 37.4476 91.5369 40.143ZM69.3642 35.2631V44.5284L69.3609 44.5251H65.9744V30.1834H69.3609V31.9913H69.5345C70.196 30.8155 71.3718 29.8985 73.4941 29.8985C76.4778 29.8985 78.0269 31.7358 78.0269 34.69V44.5284H74.6404V34.7162C74.6404 33.0262 73.9526 31.9061 72.2037 31.9061C70.4548 31.9061 69.3642 33.1408 69.3642 35.2631ZM54.5933 35.2631V44.5284L54.59 44.5251H51.2035V24.4454H54.59V31.9913H54.7636C55.4252 30.8155 56.6009 29.8985 58.7232 29.8985C61.7069 29.8985 63.2561 31.7358 63.2561 34.69V44.5284H59.8695V34.7162C59.8695 33.0262 59.1818 31.9061 57.4328 31.9061C55.6839 31.9061 54.5933 33.1408 54.5933 35.2631ZM38.758 37.3559C38.758 41.1452 39.9927 43.238 42.2002 43.238C44.4076 43.238 45.6423 41.1714 45.6423 37.3559C45.6423 33.5404 44.4076 31.4738 42.2002 31.4738C39.9927 31.4738 38.758 33.5666 38.758 37.3559ZM49.1991 37.3592C49.1991 41.4596 46.7035 44.8166 42.2002 44.8166C37.6969 44.8166 35.2012 41.4596 35.2012 37.3592C35.2012 33.2587 37.6969 29.9017 42.2002 29.9017C46.7035 29.9017 49.1991 33.2587 49.1991 37.3592ZM33.1935 38.3646C33.1935 42.1212 31.33 44.9902 26.5385 44.9902V44.9934C21.7469 44.9934 19.8834 42.1245 19.8834 38.3679V37.1332L23.4402 36.2424V38.9967C23.4402 41.607 24.3572 43.1266 26.5385 43.1266C28.7197 43.1266 29.6367 41.6921 29.6367 39.2817V24.452H33.1935V38.3646ZM3.15724 38.2827C3.15724 40.6638 4.85049 42.9007 7.60488 42.9007C8.83633 42.9007 10.1857 42.4421 11.3909 41.7249L4.90617 34.6408C3.81555 35.4138 3.15724 36.7926 3.15724 38.2827ZM14.8331 36.3013C14.8331 33.9793 13.3986 32.6299 11.0765 32.6299C10.2708 32.6299 9.29812 32.7707 8.29265 33.1736L13.9161 39.3701C14.5449 38.3941 14.8331 37.333 14.8331 36.3013ZM10.3003 28.2707C10.3003 26.4924 9.29813 25.5164 7.60488 25.5164L7.6016 25.5196C5.93783 25.5196 4.87669 26.4662 4.87669 28.1299C4.87669 29.0175 5.19111 29.7642 6.28173 30.9694L7.51645 32.345C9.49791 31.4541 10.3003 29.905 10.3003 28.2707ZM17.2371 34.7555C17.2371 36.5044 16.3495 38.512 14.8004 40.3493L14.8036 40.3526L18.4751 44.3974V44.5415H13.9718L12.249 42.6779C10.1235 44.1681 7.77192 45 5.76426 45C2.26641 45 0 42.5338 0 39.5797C0 37.3395 1.29041 35.1616 4.10048 33.8122L4.07101 33.7533C2.40724 31.9454 1.77514 30.452 1.77514 28.9618C1.77514 26.2074 3.72384 24 7.68348 24C11.1257 24 13.0776 25.7194 13.0776 27.9007C13.0776 29.4203 12.1606 30.5109 9.97936 31.6867L10.0383 31.8013C10.9259 31.4574 12.2752 31.1135 13.4805 31.1135C15.7731 31.1135 17.2371 32.5742 17.2371 34.7555Z" fill="#EB1700"/>
</svg>
